<svg xmlns="http://www.w3.org/2000/svg" viewBox="0 0 48 48" width="48" height="48">
    <!-- Main Circle -->
    <circle cx="24" cy="24" r="20" fill="#1a73e8" opacity="0.1"/>
    
    <!-- AI Brain Icon -->
    <path d="M24 12c-6.627 0-12 5.373-12 12s5.373 12 12 12 12-5.373 12-12-5.373-12-12-12zm0 22c-5.514 0-10-4.486-10-10s4.486-10 10-10 10 4.486 10 10-4.486 10-10 10z" fill="#1a73e8"/>
    
    <!-- Neural Network Lines -->
    <g fill="none" stroke="#1a73e8" stroke-width="2" stroke-linecap="round">
        <path d="M24 16v16M20 20h8M20 28h8M16 24h16"/>
    </g>
    
    <!-- Dots at Intersections -->
    <g fill="#1a73e8">
        <circle cx="24" cy="20" r="2"/>
        <circle cx="24" cy="24" r="2"/>
        <circle cx="24" cy="28" r="2"/>
        <circle cx="20" cy="24" r="2"/>
        <circle cx="28" cy="24" r="2"/>
    </g>
</svg> 